<svg xmlns="http://www.w3.org/2000/svg" width="512" height="512" viewBox="0 0 512 512" fill="none"><rect width="512" height="512" fill="#282B4C"></rect><path d="M402.467 87C396.817 152.883 323.587 201.994 233.423 201.994C200.509 201.994 169.781 193.401 143.754 181.212C142.789 180.76 141.879 181.911 142.567 182.725C169.262 214.331 209.951 234.273 256.774 234.273C286.034 234.273 310.868 227.271 333.727 213.594M402.416 87C402.803 91.0056 403 95.0616 403 99.1601C403 133.983 390.18 163.915 366.765 187.872M256.994 234.273C256.994 250.858 247.648 264.256 236.745 275.63M344.385 219.142C341.247 235.581 331.488 250.707 316.591 263.806C311.311 268.448 302.445 274.509 294.684 278.945C293.877 279.407 294.636 281.511 295.548 281.331V281.331C330.534 274.453 356.783 277.94 358.993 289.442C359.739 293.323 357.354 317.416 337.787 349.088C318.22 380.761 296.172 402.526 288.541 397.703C280.91 392.88 290.586 363.295 310.153 331.623C312.394 327.994 314.668 324.496 316.95 321.152C317.482 320.372 316.745 319.356 315.843 319.635C311.831 320.875 308.345 322.04 303.552 322.982C287.292 326.179 272.075 327.081 260.222 325.975M260.222 325.988C259.219 327.062 258.191 328.131 257.141 329.193C243.14 341.701 243.673 341.701 221.825 353.806C211.168 359.081 174.864 375.187 158.338 382.282C121.655 398.031 89.2684 404.485 86 396.697C107.258 379.024 109.819 369.828 146.502 354.079C162.29 347.3 181.327 332.118 195.714 321.527C211.168 299.839 202.746 307.299 219.12 290.737C224.813 284.979 230.698 279.906 236.517 275.625M374.225 203.002C374.225 212.473 364.444 220.151 352.378 220.151C340.311 220.151 330.53 212.473 330.53 203.002C330.53 193.532 340.311 185.854 352.378 185.854C364.444 185.854 374.225 193.532 374.225 203.002Z" stroke="#E7C884" stroke-width="10" stroke-linecap="round"></path></svg>